<?xml version="1.0" encoding="UTF-8" standalone="no"?>
<!-- Created with Inkscape (http://www.inkscape.org/) -->

<svg
   version="1.1"
   id="svg2"
   width="1388.4746"
   height="1388.4746"
   viewBox="0 0 1388.4746 1388.4746"
   sodipodi:docname="rest.svg"
   inkscape:version="1.1.2 (b8e25be833, 2022-02-05)"
   xmlns:inkscape="http://www.inkscape.org/namespaces/inkscape"
   xmlns:sodipodi="http://sodipodi.sourceforge.net/DTD/sodipodi-0.dtd"
   xmlns="http://www.w3.org/2000/svg"
   xmlns:svg="http://www.w3.org/2000/svg">
  <defs
     id="defs6">
    <clipPath
       id="a">
      <path
         id="path2"
         d="m 239.03,226.605 -42.13,24.317 c -1.578,0.91 -2.546,2.59 -2.546,4.406 v 48.668 c 0,1.817 0.968,3.496 2.546,4.406 l 42.133,24.336 c 1.575,0.907 3.517,0.907 5.09,0 l 42.126,-24.336 c 1.57,-0.91 2.54,-2.59 2.54,-4.406 v -48.668 c 0,-1.816 -0.97,-3.496 -2.55,-4.406 l -42.12,-24.317 c -0.79,-0.453 -1.67,-0.68 -2.55,-0.68 -0.88,0 -1.76,0.227 -2.55,0.68" />
    </clipPath>
    <linearGradient
       gradientUnits="userSpaceOnUse"
       gradientTransform="matrix(-38.064915,77.652126,-77.652126,-38.064915,258.72325,244.62943)"
       x2="1.251"
       x1="-0.34799999"
       id="b">
      <stop
         id="stop5"
         stop-color="#3E863D"
         offset=".3" />
      <stop
         id="stop7"
         stop-color="#55934F"
         offset=".5" />
      <stop
         id="stop9"
         stop-color="#5AAD45"
         offset=".8" />
    </linearGradient>
    <clipPath
       id="c">
      <path
         id="path12"
         d="m 195.398,307.086 c 0.403,0.523 0.907,0.976 1.5,1.316 l 36.14,20.875 6.02,3.46 c 0.9,0.52 1.926,0.74 2.934,0.665 0.336,-0.027 0.672,-0.09 1,-0.183 l 44.434,-81.36 c -0.34,-0.37 -0.738,-0.68 -1.184,-0.94 l -27.586,-15.93 -14.582,-8.39 c -0.414,-0.24 -0.863,-0.41 -1.32,-0.53 z m 0,0" />
    </clipPath>
    <linearGradient
       gradientUnits="userSpaceOnUse"
       gradientTransform="matrix(106.8057,-78.916731,78.916731,106.8057,235.18824,285.39477)"
       x2="0.58200002"
       x1="-0.456"
       id="d">
      <stop
         id="stop15"
         stop-color="#3E863D"
         offset=".57" />
      <stop
         id="stop17"
         stop-color="#619857"
         offset=".72" />
      <stop
         id="stop19"
         stop-color="#76AC64"
         offset="1" />
    </linearGradient>
    <clipPath
       id="e">
      <path
         id="path22"
         d="m 241.066,225.953 c -0.707,0.07 -1.398,0.29 -2.035,0.652 l -42.01,24.247 45.3,82.51 c 0.63,-0.09 1.25,-0.3 1.81,-0.624 l 42.13,-24.336 c 1.3,-0.754 2.19,-2.03 2.46,-3.476 l -46.18,-78.89 c -0.34,-0.067 -0.68,-0.102 -1.03,-0.102 -0.14,0 -0.28,0.007 -0.42,0.02" />
    </clipPath>
    <linearGradient
       gradientUnits="userSpaceOnUse"
       gradientTransform="matrix(97.417,0,0,97.417,192.862,279.652)"
       x2="0.98400003"
       x1="0.043000001"
       id="f">
      <stop
         id="stop25"
         stop-color="#6BBF47"
         offset=".16" />
      <stop
         id="stop27"
         stop-color="#79B461"
         offset=".38" />
      <stop
         id="stop29"
         stop-color="#75AC64"
         offset=".47" />
      <stop
         id="stop31"
         stop-color="#659E5A"
         offset=".7" />
      <stop
         id="stop33"
         stop-color="#3E863D"
         offset=".9" />
    </linearGradient>
  </defs>
  <sodipodi:namedview
     id="namedview4"
     pagecolor="#ffffff"
     bordercolor="#666666"
     borderopacity="1.0"
     inkscape:pageshadow="2"
     inkscape:pageopacity="0.0"
     inkscape:pagecheckerboard="0"
     showgrid="false"
     inkscape:snap-page="true"
     inkscape:snap-text-baseline="true"
     inkscape:snap-center="true"
     inkscape:snap-object-midpoints="true"
     inkscape:snap-midpoints="true"
     inkscape:snap-smooth-nodes="true"
     inkscape:object-paths="true"
     inkscape:snap-intersection-paths="true"
     inkscape:snap-bbox="true"
     inkscape:bbox-paths="true"
     inkscape:bbox-nodes="true"
     inkscape:snap-bbox-edge-midpoints="true"
     inkscape:snap-bbox-midpoints="true"
     inkscape:zoom="0.20956411"
     inkscape:cx="281.53676"
     inkscape:cy="198.03009"
     inkscape:window-width="1281"
     inkscape:window-height="1032"
     inkscape:window-x="769"
     inkscape:window-y="118"
     inkscape:window-maximized="0"
     inkscape:current-layer="g8"
     inkscape:snap-global="false" />
  <g
     inkscape:groupmode="layer"
     inkscape:label="Image"
     id="g8">
    <circle
       style="fill:#64caa5;stroke:none;stroke-width:6;fill-opacity:1"
       id="path849"
       cx="694.2373"
       cy="694.2373"
       r="694.2373" />
    <g
       id="g4723"
       transform="matrix(1.3713978,0,0,1.3713978,1806.824,-820.44829)"
       style="fill:#ffffff">
      <path
         style="fill:#ffffff;fill-opacity:1;stroke-width:10.1225"
         d="m -1061.1792,1292.7528 c -4.1756,-0.3604 -8.3132,-1.3665 -9.1947,-2.2359 -0.8815,-0.8693 -3.565,-1.5806 -5.9633,-1.5806 -10.2507,0 -40.8386,-14.1453 -57.9959,-26.8201 -15.4101,-11.3842 -43.2553,-43.7757 -43.2553,-50.3178 0,-1.1854 -0.6989,-2.1553 -1.553,-2.1553 -0.8542,0 -2.0533,-2.2775 -2.6647,-5.0612 -0.6114,-2.7837 -1.8105,-5.0613 -2.6647,-5.0613 -0.8542,0 -1.5531,-1.5683 -1.5531,-3.4851 0,-1.9168 -0.9302,-5.1433 -2.0671,-7.1701 -2.6309,-4.6899 -6.052,-18.9102 -8.1923,-34.0527 -1.7488,-12.3719 -0.4692,-49.394 1.8076,-52.2997 0.7271,-0.9279 1.8813,-5.0743 2.5649,-9.2141 0.6836,-4.1399 1.8815,-8.695 2.6622,-10.1226 0.7806,-1.4275 2.9956,-6.3915 4.9222,-11.0309 5.2588,-12.6642 8.0133,-17.3643 18.2619,-31.1618 15.554,-20.9399 30.9483,-33.9541 54.8012,-46.32843 8.1717,-4.2393 15.6464,-7.7079 16.6103,-7.7079 0.964,0 4.145,-1.0928 7.0689,-2.4286 6.1262,-2.7986 22.7135,-5.9651 37.3838,-7.1364 l 10.1354,-0.8092 6.4002,-12.9491 c 6.4577,-13.0655 9.7222,-18.9937 11.3113,-20.541 0.4765,-0.4639 3.8928,-5.367 7.5919,-10.8958 6.5356,-9.7683 35.20022,-39.476 46.61845,-48.3149 17.57756,-13.6068 49.97565,-29.7551 73.14212,-36.4565 25.36485,-7.3373 31.41657,-8.0892 64.95294,-8.0697 31.60125,0.018 49.96105,2.1834 63.26586,7.4606 1.85579,0.7361 7.54972,2.7058 12.65317,4.3772 37.46438,12.2697 79.09178,42.575 104.00509,75.717 l 7.71014,10.2567 33.97988,0.05 c 34.77463,0.051 36.97073,0.3478 61.07347,8.2596 29.39206,9.648 63.19594,33.6699 80.92357,57.50643 2.75982,3.7109 6.30362,8.1734 7.87511,9.9168 3.27029,3.628 19.91846,35.7353 19.91846,38.4144 0,0.9751 1.09978,4.1652 2.44396,7.0892 3.18445,6.927 5.83499,20.1095 7.95202,39.5496 2.48914,22.8573 -1.32322,56.5618 -8.53172,75.4274 -17.30091,45.2789 -45.85298,78.2934 -86.38314,99.8843 -5.19386,2.7669 -10.88778,5.4651 -12.65317,5.996 -1.76537,0.5309 -7.38532,2.5893 -12.48877,4.5743 -10.39166,4.0418 -20.54734,6.3127 -37.95951,8.4882 -11.22179,1.4021 -458.96373,1.8162 -474.91563,0.4393 z m 26.1498,-100.6665 c 4.946,-3.9512 5.0805,-4.4605 5.9049,-22.3456 l 0.8435,-18.3021 11.1314,-0.493 11.1314,-0.4931 6.7986,8.9285 c 3.73925,4.9106 8.34087,10.6733 10.22581,12.8059 2.94694,3.3341 12.98276,15.4232 15.5432,18.7233 1.51354,1.9507 10.19665,5.2362 13.83862,5.2362 1.95654,0 6.09635,-1.9366 9.19962,-4.3036 4.83995,-3.6916 5.64228,-5.3243 5.64228,-11.4818 0,-4.7956 -1.26,-8.8854 -3.79595,-12.3212 -5.08559,-6.8903 -15.03772,-19.1136 -17.98805,-22.0932 -2.56125,-2.5867 -2.30331,-2.9246 5.70835,-7.477 6.88265,-3.9108 13.59997,-13.6261 16.49085,-23.8506 3.78751,-13.396 3.71647,-18.6551 -0.4142,-30.6611 -4.48913,-13.0479 -9.65312,-19.4401 -20.5076,-25.3851 l -9.01746,-4.9389 -39.29167,-0.5578 c -39.131,-0.5555 -39.3085,-0.5418 -43.4134,3.3509 l -4.1217,3.9087 -0.029,62.5217 c -0.031,66.6846 -0.1153,65.9788 8.435,70.6632 6.3764,3.4933 12.0985,3.0293 17.6857,-1.4343 z m 322.81762,0.781 c 18.81115,-6.8757 28.7103,-19.3794 30.21858,-38.1692 1.47109,-18.3267 -6.17686,-31.182 -23.21017,-39.0134 -5.10345,-2.3464 -10.51411,-4.8894 -12.0237,-5.6511 -1.50959,-0.7618 -5.68514,-1.8842 -9.27899,-2.4944 -16.10423,-2.7342 -29.32325,-9.4696 -29.28416,-14.921 0.0376,-5.2513 1.86848,-7.3735 8.89298,-10.3085 7.56375,-3.1604 16.58102,-1.4286 32.41488,6.2253 9.11382,4.4055 10.72769,4.6968 16.19543,2.9227 6.89861,-2.2384 11.64154,-8.9094 11.64154,-16.3739 0,-9.9785 -12.33271,-18.0455 -35.72015,-23.3648 -14.78737,-3.3633 -33.96541,-1.54 -45.26014,4.3031 -8.40531,4.3483 -16.61646,14.0123 -20.31998,23.9154 -6.71664,17.9602 -1.33676,35.8124 13.9579,46.3171 7.25953,4.986 12.89908,7.0607 41.79096,15.3739 11.75446,3.3822 15.1838,6.3755 15.1838,13.2535 0,4.5412 -0.95779,5.9056 -5.73801,8.174 -3.1559,1.4975 -8.16359,2.7228 -11.12819,2.7228 -8.10145,0 -23.27827,-4.8798 -32.14498,-10.3355 -10.14463,-6.242 -17.57419,-6.3401 -23.86312,-0.3149 -6.09024,5.8348 -6.49883,15.2179 -0.93586,21.4915 4.39578,4.9573 25.62276,16.1401 30.70908,16.1782 1.89996,0.014 4.59327,0.7617 5.98512,1.6612 4.68732,3.0292 32.12513,1.9871 41.91718,-1.592 z m 108.07127,0.3267 c 2.84472,-1.6238 5.94301,-5.1534 6.88508,-7.8436 1.00316,-2.8646 1.71287,-24.628 1.71287,-52.5254 v -47.634 l 16.79521,-0.6746 c 14.64687,-0.5883 17.32046,-1.168 20.90137,-4.5321 2.25839,-2.1217 4.54355,-6.0446 5.07816,-8.7176 1.22519,-6.126 -1.68804,-14.7107 -5.72531,-16.8714 -1.81953,-0.9738 -24.21876,-1.6515 -54.58468,-1.6515 h -51.49886 l -4.286,4.6223 c -5.79659,6.2514 -5.59582,13.3369 0.58786,20.7478 l 4.87387,5.8411 17.0583,0.5798 17.05829,0.5799 0.0597,49.1893 c 0.0638,52.49 0.39732,54.8162 8.49743,59.263 5.75552,3.1596 10.5883,3.051 16.58662,-0.373 z m -208.27557,-2.9524 c 6.61002,-8.6148 5.06969,-17.8867 -3.98518,-23.9888 -5.42945,-3.6589 -7.23282,-3.8482 -36.67192,-3.8482 h -30.96167 v -11.8096 -11.8096 h 27.96675 27.96676 l 4.93148,-4.9315 c 3.35832,-3.3583 4.9315,-6.6228 4.9315,-10.2335 0,-14.0512 -6.79572,-16.8897 -40.43596,-16.8897 h -25.36053 v -11.8096 -11.8097 h 31.47368 c 31.14005,0 31.53349,-0.046 37.11597,-4.3035 4.79466,-3.6571 5.64229,-5.3515 5.64229,-11.2792 0,-4.84 -1.12303,-8.1709 -3.66826,-10.8802 -3.66048,-3.8964 -3.76606,-3.9047 -49.67507,-3.9047 h -46.00679 l -4.73358,4.0698 -4.73357,4.0698 -0.53698,59.6178 c -0.48271,53.5926 -0.24619,60.1656 2.34038,65.0375 1.58254,2.9808 4.86094,6.1705 7.28534,7.0884 2.59353,0.9818 22.95568,1.5287 49.4672,1.3287 42.85846,-0.3234 45.18565,-0.5048 47.64816,-3.7142 z"
         id="path1402" />
      <path
         style="fill:#ffffff;fill-opacity:1;stroke-width:2.53063"
         d="m -1027.5429,1119.1121 c -0.6869,-0.1972 -0.7381,-1.3672 -0.7381,-16.8734 v -16.6615 l 1.2329,-1.2329 1.2329,-1.2329 h 15.4993 c 13.1106,0 15.60597,0.097 16.19096,0.6259 0.38037,0.3442 2.19839,0.8492 4.04005,1.1221 2.40052,0.3558 3.64698,0.7662 4.4029,1.4498 0.57994,0.5245 1.71873,1.1221 2.53064,1.328 1.06382,0.2699 1.51473,0.6393 1.6141,1.3224 0.0758,0.5213 0.57063,1.145 1.09951,1.386 0.77367,0.3525 1.06296,1.0052 1.48016,3.3398 0.2852,1.5958 0.88176,3.3633 1.32568,3.9277 0.64645,0.8218 0.80713,1.7169 0.80713,4.4963 0,3.0989 -0.10584,3.5682 -0.98943,4.3871 -0.67127,0.6221 -1.08095,1.6069 -1.27407,3.0627 -0.23738,1.7895 -0.45049,2.1873 -1.28367,2.3964 -0.6022,0.1512 -1.10452,0.6711 -1.2646,1.3089 -0.1704,0.6789 -0.56151,1.0581 -1.09135,1.0581 -0.45418,0 -1.12332,0.4541 -1.48697,1.0091 -0.42215,0.6443 -1.37867,1.1867 -2.6458,1.5004 -1.09961,0.2722 -2.30292,0.9037 -2.69841,1.4161 -0.71356,0.9245 -0.71958,0.9248 -18.97973,1.0003 -10.0463,0.041 -18.5981,-0.02 -19.0041,-0.1364 z"
         id="path1441" />
    </g>
  </g>
</svg>
